# xmcd
#
# Track frame offsets:
#	150
#	12620
#	23762
#	36085
#	49222
#	60710
#	70582
#	81665
#	94085
#	107210
#	118932
#	129907
#	142337
#	154737
#	165107
#	176057
# Disc length: 2506 seconds
# Revision: 1
# Processed by: cddbd v1.5.1PL2 Copyright (c) Steve Scherf et al.
#
# Submitted via: libkcddb 0.20
#
DISCID=de09c810
DTITLE=Hank Williams - The very best of Hank Williams Snr
DYEAR=1987
DGENRE=Country
TTITLE0=Lovesick Blues
TTITLE1=Crazy Heart
TTITLE2=I'm sorry for you my friend
TTITLE3=Wedding Bells
TTITLE4=Window shopping
TTITLE5=Honky Tonk Blues
TTITLE6=(I heard that) lonesome whistle blow
TTITLE7=Half as much
TTITLE8=Jambalaya (on the bayou)
TTITLE9=Dear John
TTITLE10=The prodigal son
TTITLE11=I saw the light
TTITLE12=I won't be home no more
TTITLE13=There's no room in my heart for the blues
TTITLE14=We live in two different worlds
TTITLE15=Long gone lonesome blues
EXTD=
EXTT0=
EXTT1=
EXTT2=
EXTT3=
EXTT4=
EXTT5=
EXTT6=
EXTT7=
EXTT8=
EXTT9=
EXTT10=
EXTT11=
EXTT12=
EXTT13=
EXTT14=
EXTT15=
PLAYORDER=
